<svg id="Layer_1" enable-background="new 0 0 512.022 512.022" height="512" viewBox="0 0 512.022 512.022" width="512" xmlns="http://www.w3.org/2000/svg"><path d="m375.266 439.752c-34.247-21.161-79.28 3.335-79.28 44.27v6.82c-26.058 6.909-53.934 6.911-80 0v-6.82c0-40.771-44.878-65.527-79.28-44.27-32.016-39.391-39.989-89.982-26.33-134.33 14.283-46.351 20.932-95.949 18.26-146.53 7.432-52.041 71.443-73.297 108.61-36.13 11.58 11.58 18.74 27.58 18.74 45.26 0-35.35 28.65-64 64-64 32.081 0 58.489 23.523 63.24 54.1 0 8.576-18.088 62.238 12.48 131.53 21.447 48.622 14.933 106.579-20.44 150.1z" fill="#ece2e2"/><path d="m405.706 322.402c-12.49 71.37-74.77 125.62-149.72 125.62-74.96 0-137.24-54.26-149.72-125.64 4.023-22.575 26.979-76.251 22.37-163.49 4.43-31.02 31.1-54.87 63.35-54.87 35.358 0 64 28.639 64 64 0-57.328 69.384-85.136 109.26-45.26 9.37 9.37 15.85 21.65 17.98 35.36 0 8.354-18.088 62.236 12.48 131.53 4.57 10.36 7.96 21.32 10 32.75z" fill="#f2f2f2"/><path d="m383.476 155.582c-.971 10.312 1.978-12.613-18.23-32.82-39.888-39.888-109.26-12.046-109.26 45.26 0-35.358-28.639-64-64-64-32.25 0-58.92 23.85-63.35 54.87-.1-2.05-.22-4.11-.36-6.16-4.74-71.871 49.94-132.423 120.2-136.49 80.47-4.66 142.18 59.05 135 139.34z" fill="#aaa"/><path d="m399.986 484.022v12h-104v-12c0-28.72 23.28-52 52-52 28.718 0 52 23.28 52 52z" fill="#f2a661"/><path d="m215.986 484.022v12h-104v-12c0-18.71 9.88-35.12 24.72-44.27 34.341-21.219 79.28 3.443 79.28 44.27z" fill="#f2a661"/><path d="m110.376 305.422c-3.33 10.81-5.43 22.15-6.13 33.85-18.65 31.43-38.95 49.87-52.05 44.53-18.61-7.59-15.61-60.33 6.7-117.81 20.42-52.64 49.96-90.99 69.09-91.23.4-.01.79 0 1.18.03.64 44.23-5.73 88.25-18.79 130.63z" fill="#b2b2b2"/><path d="m459.776 383.802c-13.09 5.34-33.4-13.1-52.05-44.52.318 0-1.187-25.072-12.02-49.63-15.89-36.02-21.63-75.72-15.27-114.46 1.14-.31 2.32-.45 3.55-.42 19.13.23 48.66 38.59 69.09 91.22 22.309 57.48 25.309 110.22 6.7 117.81z" fill="#b2b2b2"/><path d="m128.636 158.892c-.87 6.028-.65 8.041-.65 33.13" fill="#8bc4ff"/><path d="m399.788 162.693c-.107-1.616-.265-3.217-.467-4.805 8.616-89.285-60.069-162.908-151.77-157.619-76.018 4.401-135.565 67.545-135.565 143.753 0 5.927.313 9.15.601 14.362-.176 1.454-.314 2.918-.41 4.395-57.48 28.17-123.355 212.455-66.021 235.838 16.575 6.755 32.954-3.344 45.549-15.936 4.228 19.325 12.027 37.652 23.171 54.379-11.688 12.217-18.89 28.758-18.89 46.96v12c0 8.837 7.163 16 16 16h104c3.357 0 6.47-1.038 9.043-2.805 20.548 3.738 41.347 3.741 61.914 0 2.573 1.767 5.686 2.805 9.043 2.805h104c8.837 0 16-7.163 16-16 0-14.112 1.919-37.208-18.89-58.96 11.144-16.727 18.942-35.053 23.171-54.376 12.599 12.594 28.982 22.693 45.552 15.933 57.639-23.507-9.056-207.868-66.031-235.924zm-40.495-64.307c-34.903-19.779-79.083-10.563-103.307 21.692-24.222-32.252-67.706-40.984-101.933-22.473 40.598-88.958 168.634-86.3 205.24.781zm-300.847 269.837c-10.834-24.703 13.867-119.745 54.126-165.013-3.901 70.449-20.908 95.721-23.968 130.691-.191 2.18-18.31 28.988-30.158 34.322zm69.76 111.799c1.996-17.975 17.281-32 35.779-32s33.783 14.025 35.779 32zm103.491-2.116c-3.904-43.567-47.944-72.674-89.895-58.149-15.818-23.573-23.263-51.042-21.585-79.529 1.814-30.315 14.119-45.222 21.685-105.749 3.018-24.355 4.009-49.405 2.797-74.647 3.9-22.577 23.613-39.81 47.287-39.81 25.252 0 45.997 19.605 47.85 44.392-9.473 5.563-15.85 15.852-15.85 27.608 0 10.5 9.661 31.521 17.767 47.308 5.94 11.568 22.523 11.575 28.467 0 8.105-15.786 17.767-36.808 17.767-47.308 0-11.756-6.377-22.046-15.85-27.608 1.853-24.786 22.599-44.392 47.85-44.392 23.227 0 42.65 16.586 47.058 38.535-1.799 13.799-16.492 68.38 14.023 137.553 17.253 39.112 14.43 85.903-10.898 123.647-41.965-14.53-85.992 14.595-89.895 58.149-16.125 2.82-32.44 2.822-48.578 0zm80.509 2.116c1.996-17.975 17.281-32 35.779-32s33.783 14.025 35.779 32zm141.321-111.8c-4.348-1.958-15.499-10.166-30.126-33.94-1.501-17.659-5.883-34.827-13.057-51.088-11.188-25.362-16.741-52.111-16.441-78.63 1.308-1.036 2.456-2.264 3.386-3.654 26.078 27.449 53.438 90.745 58.06 137.863 1.675 17.078-.335 26.056-1.822 29.449z"/><path d="m241.752 239.33c-8.105-15.786-17.767-36.808-17.767-47.308 0-17.645 14.355-32 32-32s32 14.355 32 32c0 10.5-9.661 31.521-17.767 47.308-5.939 11.568-22.522 11.575-28.466 0z" fill="#ffaa64"/></svg>